<?xml version="1.0" encoding="UTF-8"?>
<svg id="_图层_2" data-name="图层 2" xmlns="http://www.w3.org/2000/svg" xmlns:xlink="http://www.w3.org/1999/xlink" viewBox="0 0 200.5 85.15">
  <defs>
    <style>
      .cls-1 {
        clip-path: url(#clippath);
      }

      .cls-2, .cls-3, .cls-4, .cls-5 {
        fill: none;
      }

      .cls-2, .cls-6 {
        stroke-width: 0px;
      }

      .cls-7 {
        fill: #231815;
        font-family: Helvetica, Helvetica;
        font-size: 8px;
      }

      .cls-8 {
        clip-path: url(#clippath-1);
      }

      .cls-3, .cls-4 {
        stroke-width: .5px;
      }

      .cls-3, .cls-4, .cls-5 {
        stroke: #231815;
      }

      .cls-6 {
        fill: #fff;
      }

      .cls-9 {
        letter-spacing: -.02em;
      }

      .cls-4 {
        stroke-dasharray: 0 0 3 2;
      }

      .cls-5 {
        stroke-linecap: round;
      }
    </style>
    <clipPath id="clippath">
      <rect class="cls-2" width="200.5" height="85.15"/>
    </clipPath>
    <clipPath id="clippath-1">
      <rect class="cls-2" width="200.5" height="85.15"/>
    </clipPath>
  </defs>
  <g id="_图层_1-2" data-name="图层 1">
    <rect class="cls-6" x=".5" y="69.51" width="199.5" height="15.15"/>
    <g class="cls-1">
      <rect class="cls-5" x=".5" y="69.51" width="199.5" height="15.15"/>
    </g>
    <line class="cls-5" x1="67.2" y1="69.33" x2="67.2" y2="84.2"/>
    <line class="cls-5" x1="133.5" y1="69.46" x2="133.5" y2="84.32"/>
    <text class="cls-7" transform="translate(76.33 80.14)"><tspan x="0" y="0">Main memory</tspan></text>
    <text class="cls-7" transform="translate(146.8 80.14)"><tspan x="0" y="0">I/O devices</tspan></text>
    <text class="cls-7" transform="translate(16.05 80.14)"><tspan x="0" y="0">Processor</tspan></text>
    <text class="cls-7" transform="translate(81.47 6.87)"><tspan x="0" y="0">Processes</tspan></text>
    <text class="cls-7" transform="translate(106.73 30.59)"><tspan class="cls-9" x="0" y="0">V</tspan><tspan x="5.2" y="0">irtual memory</tspan></text>
    <text class="cls-7" transform="translate(157.78 56.17)"><tspan x="0" y="0">Files</tspan></text>
    <g class="cls-8">
      <path class="cls-3" d="m200.25,15.11c0-1.54-1.25-2.79-2.79-2.79h-94.4s0,0,0,0c-1.54,0-2.79-1.25-2.79-2.79,0,1.54-1.25,2.79-2.79,2.79h0S3.32,12.31,3.32,12.31c-1.54,0-2.79,1.25-2.79,2.79"/>
    </g>
    <path class="cls-3" d="m200,39.08c0-1.54-1.25-2.79-2.79-2.79h-60.98s0,0,0,0c-1.54,0-2.79-1.25-2.79-2.79,0,1.54-1.25,2.79-2.79,2.79h0s-60.74,0-60.74,0c-1.54,0-2.79,1.25-2.79,2.79"/>
    <path class="cls-3" d="m200,64.4c0-1.54-1.25-2.79-2.79-2.79h-28.07s0,0,0,0c-1.54,0-2.79-1.25-2.79-2.79,0,1.54-1.25,2.79-2.79,2.79h0s-27.57,0-27.57,0c-1.54,0-2.79,1.25-2.79,2.79"/>
    <path class="cls-4" d="m200.07,14.24v55.45m-132.91-31.2v31.2M.37,14.96v53.73V14.96Z"/>
  </g>
</svg>