<?xml version="1.0" encoding="UTF-8"?>
<svg id="_图层_2" data-name="图层 2"
  xmlns="http://www.w3.org/2000/svg"
  xmlns:xlink="http://www.w3.org/1999/xlink" viewBox="0 0 401.09 79.83">
  <defs>
    <style>
      .cls-1 {
        clip-path: url(#clippath);
      }

      .cls-2, .cls-3, .cls-4 {
        fill: none;
      }

      .cls-2, .cls-5, .cls-6, .cls-7 {
        stroke-width: 0px;
      }

      .cls-8 {
        font-family: JetBrainsMono-Regular, 'JetBrains Mono';
        font-size: 8.5px;
        font-variation-settings: 'wght' 400;
      }

      .cls-8, .cls-9, .cls-5 {
        fill: #231815;
      }

      .cls-9 {
        font-family: Helvetica, Helvetica;
        font-size: 8px;
      }

      .cls-3 {
        stroke-width: .5px;
      }

      .cls-3, .cls-4 {
        stroke: #231815;
      }

      .cls-4 {
        stroke-width: .75px;
      }

      .cls-6 {
        fill: #bfc0c0;
      }

      .cls-7 {
        fill: #fff;
      }
    </style>
    <clipPath id="clippath">
      <rect class="cls-2" y=".5" width="401.09" height="77.27"/>
    </clipPath>
  </defs>
  <g id="_图层_1-2" data-name="图层 1">
    <path class="cls-6" d="m89.66,49.8c0,1.66-1.34,3-3,3h-33.49c-1.66,0-3-1.34-3-3v-30.39c0-1.66,1.34-3,3-3h33.49c1.66,0,3,1.34,3,3v30.39"/>
    <path class="cls-7" d="m87.41,48.4c0,1.66-1.34,3-3,3h-33.49c-1.66,0-3-1.34-3-3v-30.39c0-1.66,1.34-3,3-3h33.49c1.66,0,3,1.34,3,3v30.39"/>
    <rect class="cls-4" x="47.93" y="15.01" width="39.49" height="36.39" rx="3" ry="3"/>
    <path class="cls-6" d="m176.22,49.8c0,1.66-1.34,3-3,3h-33.49c-1.66,0-3-1.34-3-3v-30.39c0-1.66,1.34-3,3-3h33.49c1.66,0,3,1.34,3,3v30.39"/>
    <path class="cls-7" d="m173.97,48.4c0,1.66-1.34,3-3,3h-33.49c-1.66,0-3-1.34-3-3v-30.39c0-1.66,1.34-3,3-3h33.49c1.66,0,3,1.34,3,3v30.39"/>
    <rect class="cls-4" x="134.48" y="15.01" width="39.49" height="36.39" rx="3" ry="3"/>
    <path class="cls-6" d="m265.34,49.8c0,1.66-1.34,3-3,3h-35.57c-1.66,0-3-1.34-3-3v-30.39c0-1.66,1.34-3,3-3h35.57c1.66,0,3,1.34,3,3v30.39"/>
    <path class="cls-7" d="m263.09,48.4c0,1.66-1.34,3-3,3h-35.57c-1.66,0-3-1.34-3-3v-30.39c0-1.66,1.34-3,3-3h35.57c1.66,0,3,1.34,3,3v30.39"/>
    <rect class="cls-4" x="221.52" y="15.01" width="41.57" height="36.39" rx="3" ry="3"/>
    <path class="cls-6" d="m356.63,49.8c0,1.66-1.34,3-3,3h-33.49c-1.66,0-3-1.34-3-3v-30.39c0-1.66,1.34-3,3-3h33.49c1.66,0,3,1.34,3,3v30.39"/>
    <path class="cls-7" d="m354.38,48.4c0,1.66-1.34,3-3,3h-33.49c-1.66,0-3-1.34-3-3v-30.39c0-1.66,1.34-3,3-3h33.49c1.66,0,3,1.34,3,3v30.39"/>
    <rect class="cls-4" x="314.89" y="15.01" width="39.49" height="36.39" rx="3" ry="3"/>
    <g class="cls-1">
      <line class="cls-3" y1="32.69" x2="44.11" y2="32.69"/>
    </g>
    <path class="cls-5" d="m43.8,32.69l-.67-1.1.04-.03,1.79.71c.62.14,1.25.27,1.87.41-.62.14-1.25.27-1.87.41l-1.79.71-.04-.02.67-1.1"/>
    <line class="cls-3" x1="87.52" y1="32.69" x2="131.64" y2="32.69"/>
    <path class="cls-5" d="m131.32,32.69l-.67-1.1.04-.03,1.79.71c.62.14,1.25.27,1.87.41-.62.14-1.25.27-1.87.41l-1.79.71-.04-.02.67-1.1"/>
    <line class="cls-3" x1="173.93" y1="32.69" x2="218.04" y2="32.69"/>
    <path class="cls-5" d="m217.73,32.69l-.67-1.1.04-.03,1.79.71c.62.14,1.25.27,1.87.41-.62.14-1.25.27-1.87.41l-1.79.71-.04-.02.67-1.1"/>
    <line class="cls-3" x1="354.25" y1="32.69" x2="398.37" y2="32.69"/>
    <path class="cls-5" d="m398.06,32.69l-.67-1.1.04-.03,1.79.71c.62.14,1.25.27,1.87.41-.62.14-1.25.27-1.87.41l-1.79.71-.04-.02.67-1.1"/>
    <line class="cls-3" x1="265.85" y1="32.69" x2="311.76" y2="32.69"/>
    <path class="cls-5" d="m311.45,32.69l-.67-1.1.04-.03,1.79.71c.62.14,1.25.27,1.87.41-.62.14-1.25.27-1.87.41l-1.79.71-.04-.02.67-1.1"/>
    <polyline class="cls-3" points="311.76 20.63 281.91 20.63 281.91 10.04"/>
    <path class="cls-5" d="m311.45,20.63l-.67-1.1.04-.03,1.79.71c.62.14,1.25.27,1.87.41-.62.14-1.25.27-1.87.41l-1.79.71-.04-.02.67-1.1"/>
    <text class="cls-9" transform="translate(60.51 26.37)">
      <tspan x="0" y="0">Pre-</tspan>
    </text>
    <text class="cls-9" transform="translate(50.51 35.37)">
      <tspan x="0" y="0">processor</tspan>
    </text>
    <text class="cls-8" transform="translate(56.91 44.37)">
      <tspan x="0" y="0">(cpp)</tspan>
    </text>
    <text class="cls-9" transform="translate(138.46 30.89)">
      <tspan x="0" y="0">Compiler</tspan>
    </text>
    <text class="cls-8" transform="translate(143.31 39.89)">
      <tspan x="0" y="0">(cc1)</tspan>
    </text>
    <text class="cls-9" transform="translate(223.48 30.78)">
      <tspan x="0" y="0">Assembler</tspan>
    </text>
    <text class="cls-8" transform="translate(233.44 39.78)">
      <tspan x="0" y="0">(as)</tspan>
    </text>
    <text class="cls-9" transform="translate(323.74 31.12)">
      <tspan x="0" y="0">Linker</tspan>
    </text>
    <text class="cls-8" transform="translate(325.7 40.12)">
      <tspan x="0" y="0">(ld)</tspan>
    </text>
    <text class="cls-8" transform="translate(7.11 29.51)">
      <tspan x="0" y="0">hello.c</tspan>
    </text>
    <text class="cls-8" transform="translate(94.74 29.51)">
      <tspan x="0" y="0">hello.i</tspan>
    </text>
    <text class="cls-8" transform="translate(182.4 29.51)">
      <tspan x="0" y="0">hello.s</tspan>
    </text>
    <text class="cls-8" transform="translate(273.3 29.51)">
      <tspan x="0" y="0">hello.o</tspan>
    </text>
    <text class="cls-8" transform="translate(268.81 7.35)">
      <tspan x="0" y="0">printf.o</tspan>
    </text>
    <text class="cls-8" transform="translate(368.76 29.51)">
      <tspan x="0" y="0">hello</tspan>
    </text>
    <text class="cls-9" transform="translate(10.41 48.69)">
      <tspan x="0" y="0">Source</tspan>
    </text>
    <text class="cls-9" transform="translate(8.19 57.69)">
      <tspan x="0" y="0">program</tspan>
    </text>
    <text class="cls-9" transform="translate(13.96 66.69)">
      <tspan x="0" y="0">(text)</tspan>
    </text>
    <text class="cls-9" transform="translate(95.14 48.98)">
      <tspan x="0" y="0">Modified</tspan>
    </text>
    <text class="cls-9" transform="translate(98.25 57.98)">
      <tspan x="0" y="0">source</tspan>
    </text>
    <text class="cls-9" transform="translate(95.36 66.98)">
      <tspan x="0" y="0">program</tspan>
    </text>
    <text class="cls-9" transform="translate(101.14 75.98)">
      <tspan x="0" y="0">(text)</tspan>
    </text>
    <text class="cls-9" transform="translate(180.16 49.21)">
      <tspan x="0" y="0">Assembly</tspan>
    </text>
    <text class="cls-9" transform="translate(182.61 58.21)">
      <tspan x="0" y="0">program</tspan>
    </text>
    <text class="cls-9" transform="translate(188.39 67.21)">
      <tspan x="0" y="0">(text)</tspan>
    </text>
    <text class="cls-9" transform="translate(268.22 48.85)">
      <tspan x="0" y="0">Relocatable</tspan>
    </text>
    <text class="cls-9" transform="translate(278.67 57.85)">
      <tspan x="0" y="0">object</tspan>
    </text>
    <text class="cls-9" transform="translate(272.45 66.85)">
      <tspan x="0" y="0">programs</tspan>
    </text>
    <text class="cls-9" transform="translate(275.79 75.85)">
      <tspan x="0" y="0">(binary)</tspan>
    </text>
    <text class="cls-9" transform="translate(360.2 48.95)">
      <tspan x="0" y="0">Executable</tspan>
    </text>
    <text class="cls-9" transform="translate(369.32 57.95)">
      <tspan x="0" y="0">object</tspan>
    </text>
    <text class="cls-9" transform="translate(365.1 66.95)">
      <tspan x="0" y="0">program</tspan>
    </text>
    <text class="cls-9" transform="translate(366.44 75.95)">
      <tspan x="0" y="0">(binary)</tspan>
    </text>
  </g>
</svg>